<?xml version="1.0" encoding="utf-8"?>
<!-- Generator: Adobe Illustrator 25.2.0, SVG Export Plug-In . SVG Version: 6.00 Build 0)  -->
<svg version="1.1" id="Layer_1" xmlns="http://www.w3.org/2000/svg" xmlns:xlink="http://www.w3.org/1999/xlink" x="0px" y="0px"
	 viewBox="0 0 812.8 521.1" style="enable-background:new 0 0 812.8 521.1;" xml:space="preserve">
<path d="M221.3,363.4c36.1,0,65.5-29.3,65.5-65.4c0-36.1-29.3-65.5-65.4-65.5c-36.1,0-65.5,29.3-65.5,65.4c0,0,0,0,0,0
	C155.8,334.1,185.1,363.4,221.3,363.4z"/>
<circle cx="590.2" cy="298" r="65.5"/>
<path d="M36.8,298c0,101.9,82.6,184.5,184.5,184.5c46.5,0.1,91.3-17.5,125.4-49.2l59.1,64.4l59.1-64.3
	c34.1,31.6,78.9,49.2,125.3,49.1c101.9,0,184.6-82.6,184.6-184.5c0.1-51.9-21.8-101.4-60.2-136.3L775,95.9H641.2
	c-141.9-96.6-328.5-96.6-470.4,0H36.6L97,161.6C58.6,196.5,36.7,246.1,36.8,298z M715.1,298c0,69-55.9,124.9-124.9,124.9
	S465.4,366.9,465.4,298c0-69,55.9-124.9,124.9-124.9S715.1,229,715.1,298C715.1,298,715.1,298,715.1,298z M405.8,83.9
	c47.6-0.1,94.7,9.4,138.6,27.7c-78.8,30.2-138.5,100.6-138.5,182.8c0-82.2-59.8-152.7-138.6-182.8C311.1,93.2,358.2,83.8,405.8,83.9
	z M221.3,173.1c69,0,124.9,55.9,124.9,124.9s-55.9,124.9-124.9,124.9S96.4,366.9,96.4,298C96.4,229,152.3,173.1,221.3,173.1
	L221.3,173.1L221.3,173.1z"/>
</svg>
