<?xml version="1.0" encoding="utf-8"?>
<!-- Generator: Adobe Illustrator 25.2.0, SVG Export Plug-In . SVG Version: 6.00 Build 0)  -->
<svg version="1.1" id="Layer_1" xmlns="http://www.w3.org/2000/svg" xmlns:xlink="http://www.w3.org/1999/xlink" x="0px" y="0px"
	 viewBox="0 0 28.3 26.9" style="enable-background:new 0 0 28.3 26.9;" xml:space="preserve">
<style type="text/css">
	.st0{fill:#131313;}
</style>
<path id="yelp" class="st0" d="M14.2,19.8v1.9c0,2.9,0,4.4-0.1,4.6c-0.1,0.3-0.4,0.6-0.8,0.6c-0.9,0-1.9-0.2-2.7-0.6
	C9.7,26,8.9,25.6,8.2,25c-0.1-0.2-0.2-0.3-0.3-0.5c0-0.1,0-0.3,0.1-0.4c0.1-0.2,0.3-0.5,0.5-0.7c0.3-0.4,1.2-1.4,2.7-3.2
	c0,0,0.3-0.3,0.9-1c0.1-0.2,0.4-0.3,0.6-0.4c0.2-0.1,0.5,0,0.7,0.1c0.2,0.1,0.4,0.2,0.6,0.4C14.2,19.3,14.2,19.6,14.2,19.8z M12,16
	c0,0.5-0.3,0.9-0.8,1l-1.8,0.6C6.7,18.5,5.2,19,5,19c-0.3,0-0.7-0.2-0.8-0.5C4.1,18.1,4,17.7,4,17.3c-0.1-0.8-0.1-1.7,0-2.5
	c0-0.6,0.2-1.3,0.4-1.9c0.2-0.3,0.5-0.5,0.8-0.5c1,0.3,2,0.7,3,1.2l1.7,0.7l1.3,0.5c0.2,0.1,0.4,0.2,0.5,0.5
	C11.9,15.5,12,15.8,12,16L12,16z M24.4,20.5c-0.3,0.9-0.7,1.7-1.4,2.4c-0.5,0.8-1.2,1.4-2,1.9c-0.3,0.1-0.7,0.1-0.9-0.1
	c-0.1-0.1-1.1-1.5-2.8-4.3l-0.7-1.2c-0.1-0.2-0.2-0.4-0.2-0.7c0-0.3,0.1-0.5,0.3-0.7c0.3-0.4,0.8-0.6,1.2-0.4c0,0,0.6,0.2,1.8,0.6
	c2,0.7,3.2,1.1,3.6,1.2c0.2,0.1,0.5,0.2,0.7,0.3C24.3,19.8,24.4,20.1,24.4,20.5z M14.3,11c0,1-0.2,1.6-0.8,1.8
	c-0.6,0.2-1.1-0.2-1.7-1.1l-5.7-9C6,2.5,6.1,2.1,6.4,1.9c0.9-0.7,2-1.1,3.1-1.3c1.1-0.4,2.2-0.6,3.4-0.5c0.4,0.1,0.6,0.3,0.7,0.7
	c0,0.2,0.1,1.7,0.3,4.6S14.2,10.1,14.3,11L14.3,11z M24.2,12.6c0.1,0.3-0.1,0.7-0.4,0.9c-0.1,0.1-1.8,0.5-4.9,1.3
	c-0.7,0.1-1.1,0.3-1.4,0.3l0,0c-0.2,0.1-0.5,0-0.7-0.1c-0.2-0.1-0.4-0.3-0.6-0.5c-0.3-0.4-0.3-0.9,0-1.3c0,0,0.4-0.5,1.1-1.5
	c1.2-1.7,2-2.7,2.2-3.1c0.1-0.2,0.3-0.4,0.5-0.6c0.3-0.2,0.7-0.2,1,0c0.8,0.5,1.4,1.2,1.8,2C23.6,10.8,24,11.7,24.2,12.6L24.2,12.6z
	"/>
</svg>
